<svg viewBox="0 0 75 82" fill="none" xmlns="http://www.w3.org/2000/svg">
<rect x="1" y="1" width="73" height="79.5315" rx="3" stroke="#252734" stroke-width="2"/>
<path d="M0 4C0 1.79086 1.79086 0 4 0H71C73.2091 0 75 1.79086 75 4V11H0V4Z" fill="#252734"/>
<circle cx="57.7973" cy="5.39189" r="1.68919" fill="white"/>
<circle cx="62.9775" cy="5.39189" r="1.68919" fill="white"/>
<circle cx="68.1577" cy="5.39189" r="1.68919" fill="white"/>
<rect x="6" y="20" width="37" height="3" rx="1.5" fill="white"/>
<rect x="6" y="29" width="62" height="3" rx="1.5" fill="white"/>
<rect x="6" y="37" width="18" height="3" rx="1.5" fill="white"/>
<rect x="28" y="37" width="40" height="3" rx="1.5" fill="white"/>
<rect x="6" y="46" width="50" height="3" rx="1.5" fill="white"/>
<rect x="24" y="54" width="39" height="3" rx="1.5" fill="white"/>
<rect x="6" y="54" width="14" height="3" rx="1.5" fill="white"/>
<rect x="6" y="63" width="62" height="3" rx="1.5" fill="white"/>
<rect x="6" y="71" width="21" height="3" rx="1.5" fill="white"/>
<rect x="31" y="71" width="21" height="3" rx="1.5" fill="white"/>
<rect x="56" y="71" width="13" height="3" rx="1.5" fill="white"/>
</svg>
