<svg viewBox="0 0 801 126" fill="none" xmlns="http://www.w3.org/2000/svg">
<path d="M190.247 59.1387H181.562V74.0955H165.641V17.8063H191.373C196.466 17.8063 200.888 18.6641 204.641 20.3796C208.394 22.0414 211.288 24.4538 213.326 27.6167C215.363 30.726 216.381 34.3982 216.381 38.6333C216.381 42.7076 215.416 46.2726 213.486 49.3283C211.61 52.3304 208.903 54.6892 205.365 56.4046L217.507 74.0955H200.459L190.247 59.1387ZM200.299 38.6333C200.299 36.0065 199.468 33.9694 197.806 32.5219C196.144 31.0745 193.678 30.3508 190.408 30.3508H181.562V46.8355H190.408C193.678 46.8355 196.144 46.1386 197.806 44.7447C199.468 43.2973 200.299 41.2602 200.299 38.6333Z"/>
<path d="M254.355 75.2213C245.992 75.2213 239.479 72.9429 234.815 68.3862C230.204 63.8294 227.899 57.3696 227.899 49.0066V17.8063H243.821V48.5241C243.821 57.5304 247.386 62.0336 254.516 62.0336C261.592 62.0336 265.13 57.5304 265.13 48.5241V17.8063H280.811V49.0066C280.811 57.3696 278.479 63.8294 273.815 68.3862C269.205 72.9429 262.718 75.2213 254.355 75.2213Z"/>
<path d="M338.076 44.7447C341.292 45.8705 343.812 47.6396 345.635 50.052C347.457 52.4108 348.369 55.2789 348.369 58.6562C348.369 63.5882 346.385 67.3944 342.418 70.0749C338.451 72.7553 332.715 74.0955 325.21 74.0955H294.814V17.8063H323.601C330.785 17.8063 336.253 19.1466 340.006 21.827C343.758 24.4538 345.635 28.0188 345.635 32.5219C345.635 35.2024 344.965 37.6148 343.624 39.7591C342.338 41.8499 340.488 43.5117 338.076 44.7447ZM310.575 29.3054V40.1612H321.511C326.872 40.1612 329.552 38.3385 329.552 34.6931C329.552 31.1013 326.872 29.3054 321.511 29.3054H310.575ZM323.923 62.5964C329.498 62.5964 332.286 60.6933 332.286 56.8871C332.286 53.0809 329.498 51.1778 323.923 51.1778H310.575V62.5964H323.923Z"/>
<path d="M405.024 61.7923V74.0955H359.832V17.8063H403.979V30.1095H375.593V39.5983H400.601V51.4994H375.593V61.7923H405.024ZM384.84 1H400.119L385.001 13.2228H374.065L384.84 1Z"/>
<path d="M470.631 17.8063V74.0955H457.524L432.676 44.1014V74.0955H417.076V17.8063H430.183L455.031 47.8004V17.8063H470.631Z"/>
<path d="M556.801 17.8063L531.552 74.0955H528.898L503.648 17.8063H506.704L530.345 70.5573L553.906 17.8063H556.801Z"/>
<path d="M569.757 17.8063H572.491V74.0955H569.757V17.8063Z"/>
<path d="M596.296 17.8063H599.03V71.6027H632V74.0955H596.296V17.8063Z"/>
<path d="M646.316 17.8063H649.05V71.6027H682.019V74.0955H646.316V17.8063Z"/>
<path d="M730.911 57.6108H697.218L689.659 74.0955H686.684L712.737 17.8063H715.391L741.445 74.0955H738.47L730.911 57.6108ZM729.865 55.2788L714.104 20.9425L698.263 55.2788H729.865Z"/>
<path d="M795.184 74.0955L781.273 54.716C779.45 55.0376 777.413 55.1984 775.161 55.1984H758.355V74.0955H755.621V17.8063H775.161C782.184 17.8063 787.652 19.4682 791.565 22.792C795.533 26.0621 797.516 30.6188 797.516 36.4622C797.516 40.9653 796.337 44.7447 793.978 47.8004C791.673 50.8025 788.349 52.8933 784.007 54.0727L798.401 74.0955H795.184ZM775.322 52.7056C781.594 52.7056 786.419 51.3118 789.796 48.5241C793.174 45.6829 794.862 41.6622 794.862 36.4622C794.862 31.3157 793.174 27.3487 789.796 24.561C786.419 21.7198 781.594 20.2991 775.322 20.2991H758.355V52.7056H775.322Z"/>
<path d="M203.969 99.5161L195.295 124.922H194.061L185.786 101.222L177.547 124.922H176.277L167.603 99.5161H168.909L176.93 123.143L185.205 99.5161H186.403L194.641 123.18L202.735 99.5161H203.969Z"/>
<path d="M251.849 123.797V124.922H234.682V99.5161H251.341V100.641H235.916V111.457H249.708V112.582H235.916V123.797H251.849Z"/>
<path d="M298.231 111.856C300.215 112.17 301.715 112.872 302.732 113.961C303.748 115.026 304.256 116.453 304.256 118.244C304.256 120.421 303.482 122.079 301.933 123.216C300.385 124.353 298.074 124.922 295.001 124.922H283.968V99.5161H294.275C296.961 99.5161 299.066 100.073 300.59 101.186C302.115 102.299 302.877 103.896 302.877 105.976C302.877 107.501 302.465 108.759 301.643 109.751C300.82 110.743 299.683 111.445 298.231 111.856ZM285.202 100.605V111.493H294.311C296.658 111.493 298.473 111.033 299.756 110.114C301.038 109.17 301.679 107.815 301.679 106.049C301.679 104.283 301.038 102.94 299.756 102.02C298.473 101.077 296.658 100.605 294.311 100.605H285.202ZM295.074 123.833C297.711 123.833 299.695 123.373 301.026 122.454C302.357 121.534 303.022 120.119 303.022 118.207C303.022 116.272 302.357 114.844 301.026 113.925C299.695 113.005 297.711 112.546 295.074 112.546H285.202V123.833H295.074Z"/>
<path d="M368.348 99.5161H380.361C383.144 99.5161 385.612 100.036 387.765 101.077C389.919 102.117 391.588 103.593 392.774 105.505C393.959 107.416 394.552 109.654 394.552 112.219C394.552 114.784 393.959 117.022 392.774 118.933C391.588 120.845 389.919 122.321 387.765 123.361C385.612 124.401 383.144 124.922 380.361 124.922H368.348V99.5161ZM380.071 119.187C382.249 119.187 383.991 118.57 385.297 117.336C386.628 116.102 387.293 114.396 387.293 112.219C387.293 110.041 386.628 108.335 385.297 107.101C383.991 105.867 382.249 105.25 380.071 105.25H375.534V119.187H380.071Z"/>
<path d="M443.773 119.369V124.922H423.376V99.5161H443.301V105.069H430.489V109.352H441.776V114.723H430.489V119.369H443.773Z"/>
<path d="M498.217 99.5161L487.329 124.922H480.252L469.4 99.5161H477.167L484.063 116.066L491.104 99.5161H498.217Z"/>
<path d="M545.144 119.369V124.922H524.747V99.5161H544.672V105.069H531.86V109.352H543.148V114.723H531.86V119.369H545.144Z"/>
<path d="M574.174 99.5161H581.361V119.224H593.483V124.922H574.174V99.5161Z"/>
<path d="M633.791 125.43C631.105 125.43 628.685 124.861 626.532 123.724C624.403 122.587 622.721 121.014 621.487 119.006C620.277 116.998 619.672 114.735 619.672 112.219C619.672 109.703 620.277 107.44 621.487 105.432C622.721 103.424 624.403 101.851 626.532 100.714C628.685 99.5766 631.105 99.008 633.791 99.008C636.476 99.008 638.884 99.5766 641.013 100.714C643.167 101.851 644.848 103.424 646.058 105.432C647.292 107.44 647.909 109.703 647.909 112.219C647.909 114.735 647.292 116.998 646.058 119.006C644.848 121.014 643.167 122.587 641.013 123.724C638.884 124.861 636.476 125.43 633.791 125.43ZM633.791 119.478C635.073 119.478 636.235 119.175 637.275 118.57C638.315 117.965 639.138 117.119 639.743 116.03C640.348 114.917 640.65 113.646 640.65 112.219C640.65 110.791 640.348 109.533 639.743 108.444C639.138 107.331 638.315 106.472 637.275 105.867C636.235 105.263 635.073 104.96 633.791 104.96C632.508 104.96 631.347 105.263 630.307 105.867C629.266 106.472 628.443 107.331 627.839 108.444C627.234 109.533 626.931 110.791 626.931 112.219C626.931 113.646 627.234 114.917 627.839 116.03C628.443 117.119 629.266 117.965 630.307 118.57C631.347 119.175 632.508 119.478 633.791 119.478Z"/>
<path d="M688.329 99.5161C690.628 99.5161 692.624 99.9032 694.318 100.677C696.012 101.428 697.318 102.516 698.238 103.944C699.157 105.347 699.617 107.005 699.617 108.916C699.617 110.828 699.157 112.485 698.238 113.888C697.318 115.292 696.012 116.381 694.318 117.155C692.624 117.905 690.628 118.28 688.329 118.28H683.902V124.922H676.715V99.5161H688.329ZM687.894 112.618C689.37 112.618 690.483 112.304 691.233 111.674C691.983 111.021 692.358 110.102 692.358 108.916C692.358 107.731 691.983 106.811 691.233 106.158C690.483 105.505 689.37 105.178 687.894 105.178H683.902V112.618H687.894Z"/>
<path d="M748.56 119.369V124.922H728.163V99.5161H748.088V105.069H735.277V109.352H746.564V114.723H735.277V119.369H748.56Z"/>
<path d="M788.696 118.171H784.777V124.922H777.591V99.5161H789.205C791.503 99.5161 793.499 99.9032 795.193 100.677C796.887 101.428 798.193 102.516 799.113 103.944C800.032 105.347 800.492 107.005 800.492 108.916C800.492 110.755 800.056 112.364 799.185 113.743C798.339 115.098 797.117 116.163 795.52 116.937L801 124.922H793.306L788.696 118.171ZM793.233 108.916C793.233 107.731 792.858 106.811 792.108 106.158C791.358 105.505 790.245 105.178 788.769 105.178H784.777V112.618H788.769C790.245 112.618 791.358 112.304 792.108 111.674C792.858 111.021 793.233 110.102 793.233 108.916Z"/>
<path d="M57.3265 36.4301C57.3265 37.8901 57.0994 39.0094 56.6451 39.7881C56.1909 40.5343 55.4609 41.0696 54.4552 41.3941C55.4609 41.7185 56.1909 42.27 56.6451 43.0487C57.0994 43.7949 57.3265 44.898 57.3265 46.358V55.6045C57.3265 56.805 57.6185 57.7134 58.2024 58.3298C58.8189 58.9787 59.7273 59.3031 60.9277 59.3031H61.9497V64.1697H59.5164C56.7911 64.1697 54.7309 63.4884 53.3358 62.1258C51.9408 60.7956 51.2432 58.8327 51.2432 56.2372V46.212C51.2432 44.6547 50.5132 43.876 49.0532 43.876H47.4473V38.9121H49.0532C50.5132 38.9121 51.2432 38.1334 51.2432 36.5761V26.5509C51.2432 23.9554 51.9408 21.9926 53.3358 20.6623C54.7309 19.2997 56.7911 18.6184 59.5164 18.6184H61.9497V23.485H60.9277C59.7273 23.485 58.8189 23.8094 58.2024 24.4583C57.6185 25.0747 57.3265 25.9832 57.3265 27.1836V36.4301Z"/>
<path d="M81.3273 36.4301C81.3273 37.8901 81.5545 39.0094 82.0087 39.7881C82.4629 40.5343 83.1929 41.0696 84.1986 41.3941C83.1929 41.7185 82.4629 42.27 82.0087 43.0487C81.5545 43.7949 81.3273 44.898 81.3273 46.358V55.6045C81.3273 56.805 81.0354 57.7134 80.4514 58.3298C79.8349 58.9787 78.9265 59.3031 77.7261 59.3031H76.7041V64.1697H79.1374C81.8627 64.1697 83.9229 63.4884 85.318 62.1258C86.7131 60.7956 87.4106 58.8327 87.4106 56.2372V46.212C87.4106 44.6547 88.1406 43.876 89.6006 43.876H91.2065V38.9121H89.6006C88.1406 38.9121 87.4106 38.1334 87.4106 36.5761V26.5509C87.4106 23.9554 86.7131 21.9926 85.318 20.6623C83.9229 19.2997 81.8627 18.6184 79.1374 18.6184H76.7041V23.485H77.7261C78.9265 23.485 79.8349 23.8094 80.4514 24.4583C81.0354 25.0747 81.3273 25.9832 81.3273 27.1836V36.4301Z"/>
<path d="M33.2086 86.8896H43.1189L10.9103 43.9448L43.1189 1H33.2086L1 43.9448L33.2086 86.8896Z"/>
<path fill-rule="evenodd" clip-rule="evenodd" d="M32.9586 0.5H44.1189L11.5353 43.9448L44.1189 87.3896H32.9586L0.375 43.9448L32.9586 0.5ZM33.4586 1.5L1.625 43.9448L33.4586 86.3896H42.1189L10.2853 43.9448L42.1189 1.5H33.4586Z"/>
<path d="M105.884 86.8896H95.9739L128.182 43.9448L95.9739 1H105.884L138.093 43.9448L105.884 86.8896Z"/>
<path fill-rule="evenodd" clip-rule="evenodd" d="M106.134 0.5H94.9739L127.557 43.9448L94.9739 87.3896H106.134L138.718 43.9448L106.134 0.5ZM105.634 1.5L137.468 43.9448L105.634 86.3896H96.9739L128.807 43.9448L96.9739 1.5H105.634Z"/>
<rect x="60.7373" y="68.7206" width="4.95517" height="36.8885"/>
<rect x="98.1763" y="105.609" width="7.15747" height="57.2597" transform="rotate(90 98.1763 105.609)"/>
<rect x="98.1763" y="118.272" width="7.15747" height="57.2597" transform="rotate(90 98.1763 118.272)"/>
<rect x="73.4004" y="68.7206" width="4.95517" height="36.8885"/>
</svg>
