<svg viewBox="0 0 466 512" fill="none" xmlns="http://www.w3.org/2000/svg">
<path d="M256 512C334.756 512 406.982 476.196 454.844 417.225C483.114 382.394 452.286 331.503 408.595 339.824C326.247 355.507 250.323 292.556 250.323 209.032C250.323 160.608 276.383 116.74 317.757 93.196C356.502 71.146 346.756 12.408 302.735 4.277C287.319 1.43415 271.676 0.00255631 256 0C114.64 0 2.28882e-07 114.575 2.28882e-07 256C2.28882e-07 397.36 114.576 512 256 512ZM256 48C268.985 48 281.689 49.201 294.016 51.478C239.256 82.641 202.323 141.52 202.323 209.032C202.323 322.88 305.964 408.232 417.575 386.976C379.439 433.964 321.231 464 256 464C141.125 464 48 370.875 48 256C48 141.125 141.125 48 256 48Z" fill="#6f6f6f"/>
</svg>
