<svg viewBox="0 0 491 513" fill="none" xmlns="http://www.w3.org/2000/svg">
<path d="M209.546 488.035L189.333 438.61C189.114 438.071 188.779 437.586 188.354 437.19C187.928 436.794 187.42 436.495 186.867 436.316C186.314 436.136 185.728 436.08 185.151 436.15C184.573 436.22 184.018 436.416 183.525 436.724L138.121 464.828C108.655 483.068 71.8255 456.309 80.0665 422.649L92.7655 370.784C92.9051 370.219 92.9197 369.63 92.8081 369.06C92.6965 368.489 92.4615 367.949 92.1196 367.478C91.7776 367.008 91.337 366.617 90.8284 366.335C90.3199 366.052 89.7558 365.884 89.1755 365.843L35.9245 361.892C1.37053 359.33 -12.7075 316.037 13.7505 293.645L54.5095 259.149C54.9543 258.774 55.3119 258.307 55.5572 257.779C55.8024 257.252 55.9295 256.677 55.9295 256.096C55.9295 255.514 55.8024 254.939 55.5572 254.412C55.3119 253.885 54.9543 253.417 54.5095 253.043L13.7495 218.546C-12.7005 196.162 1.35953 152.864 35.9235 150.3L89.1745 146.349C89.7548 146.307 90.3189 146.139 90.8274 145.856C91.336 145.574 91.7766 145.184 92.1186 144.713C92.4605 144.242 92.6955 143.703 92.8071 143.132C92.9187 142.561 92.9041 141.972 92.7645 141.408L80.0665 89.5417C71.8275 55.8857 108.648 29.1217 138.121 47.3627L183.524 75.4667C184.017 75.7739 184.573 75.9695 185.15 76.0397C185.727 76.11 186.313 76.0533 186.866 75.8736C187.419 75.6939 187.927 75.3955 188.353 74.9992C188.778 74.603 189.112 74.1185 189.332 73.5797L209.545 24.1547C222.661 -7.91634 268.183 -7.92635 281.303 24.1547L301.515 73.5787C301.734 74.1175 302.068 74.602 302.494 74.9983C302.92 75.3945 303.427 75.6929 303.98 75.8726C304.534 76.0524 305.119 76.1091 305.697 76.0388C306.274 75.9685 306.83 75.7729 307.324 75.4657L352.727 47.3617C382.191 29.1257 419.024 55.8747 410.781 89.5407L398.082 141.406C397.942 141.97 397.928 142.559 398.04 143.13C398.151 143.7 398.386 144.24 398.728 144.71C399.07 145.181 399.511 145.571 400.019 145.854C400.527 146.136 401.091 146.305 401.672 146.347L454.923 150.298C489.476 152.861 503.556 196.152 477.098 218.544L436.338 253.041C435.893 253.415 435.535 253.883 435.29 254.41C435.045 254.938 434.918 255.512 434.918 256.094C434.918 256.676 435.045 257.25 435.29 257.778C435.535 258.305 435.893 258.773 436.338 259.148L477.098 293.644C503.609 316.085 489.42 359.333 454.923 361.891L401.672 365.842C401.091 365.883 400.527 366.052 400.019 366.334C399.51 366.617 399.07 367.007 398.728 367.478C398.386 367.949 398.151 368.488 398.04 369.059C397.928 369.63 397.943 370.219 398.083 370.784L410.781 422.648C419.022 456.306 382.198 483.069 352.727 464.828L307.324 436.724C306.83 436.416 306.274 436.221 305.697 436.151C305.119 436.08 304.534 436.137 303.98 436.317C303.427 436.496 302.92 436.795 302.494 437.191C302.068 437.587 301.734 438.072 301.515 438.611L281.303 488.035C268.144 520.213 222.628 520.028 209.546 488.035ZM226.36 423.467L245.424 470.083L264.488 423.468C274.796 398.268 305.266 388.402 328.38 402.709L371.202 429.216L359.226 380.297C352.751 353.853 371.606 327.958 398.713 325.948L448.939 322.222L410.495 289.686C389.713 272.095 389.748 240.065 410.496 222.506L448.938 189.97L398.713 186.243C371.562 184.228 352.763 158.295 359.225 131.894L371.203 82.9747L328.38 109.482C305.229 123.809 274.777 113.882 264.488 88.7217L245.424 42.1067L226.36 88.7237C216.055 113.922 185.582 123.79 162.469 109.484L119.646 82.9757L131.623 131.894C138.097 158.34 119.242 184.232 92.1345 186.244L41.9105 189.97L80.3535 222.507C101.136 240.095 101.101 272.126 80.3535 289.685L41.9095 322.222L92.1355 325.948C119.287 327.962 138.086 353.895 131.623 380.297L119.646 429.216L162.469 402.709C185.657 388.354 216.091 398.357 226.36 423.467ZM245.43 384.099C174.85 384.099 117.43 326.678 117.43 256.099C117.43 185.519 174.85 128.099 245.43 128.099C316.009 128.099 373.43 185.519 373.43 256.099C373.43 326.678 316.009 384.099 245.43 384.099ZM245.43 176.099C201.318 176.099 165.43 211.987 165.43 256.099C165.43 300.211 201.318 336.099 245.43 336.099C289.542 336.099 325.43 300.211 325.43 256.099C325.43 211.987 289.542 176.099 245.43 176.099Z" fill="#DEDEDE"/>
</svg>
